<?xml version="1.0" encoding="UTF-8" ?>
<svg version="1.1" width="320" height="320" xmlns="http://www.w3.org/2000/svg" shape-rendering="crispEdges">
<rect x="210" y="20" width="80" height="10" fill="#181425" />
<rect x="200" y="30" width="10" height="10" fill="#181425" />
<rect x="210" y="30" width="80" height="20" fill="#EAD4AA" />
<rect x="290" y="30" width="10" height="10" fill="#181425" />
<rect x="190" y="40" width="10" height="10" fill="#181425" />
<rect x="200" y="40" width="10" height="30" fill="#E4A672" />
<rect x="290" y="40" width="10" height="10" fill="#EAD4AA" />
<rect x="300" y="40" width="10" height="10" fill="#181425" />
<rect x="180" y="50" width="10" height="30" fill="#181425" />
<rect x="190" y="50" width="10" height="10" fill="#E4A672" />
<rect x="210" y="50" width="40" height="10" fill="#EAD4AA" />
<rect x="250" y="50" width="50" height="10" fill="#B5A489" />
<rect x="300" y="50" width="10" height="10" fill="#EAD4AA" />
<rect x="310" y="50" width="10" height="10" fill="#181425" />
<rect x="190" y="60" width="10" height="20" fill="#F77622" />
<rect x="210" y="60" width="10" height="20" fill="#E4A672" />
<rect x="220" y="60" width="20" height="10" fill="#EAD4AA" />
<rect x="240" y="60" width="30" height="10" fill="#B5A489" />
<rect x="270" y="60" width="20" height="10" fill="#181425" />
<rect x="290" y="60" width="20" height="10" fill="#B5A489" />
<rect x="310" y="60" width="10" height="10" fill="#EAD4AA" />
<rect x="100" y="70" width="10" height="10" fill="#181425" />
<rect x="200" y="70" width="10" height="20" fill="#F77622" />
<rect x="220" y="70" width="10" height="20" fill="#E4A672" />
<rect x="230" y="70" width="30" height="10" fill="#B5A489" />
<rect x="260" y="70" width="10" height="10" fill="#181425" />
<rect x="290" y="70" width="10" height="20" fill="#181425" />
<rect x="300" y="70" width="10" height="20" fill="#EAD4AA" />
<rect x="310" y="70" width="10" height="10" fill="#B5A489" />
<rect x="90" y="80" width="10" height="10" fill="#181425" />
<rect x="100" y="80" width="10" height="20" fill="#F77622" />
<rect x="110" y="80" width="10" height="20" fill="#181425" />
<rect x="190" y="80" width="10" height="10" fill="#181425" />
<rect x="210" y="80" width="10" height="30" fill="#F77622" />
<rect x="230" y="80" width="10" height="20" fill="#B0815F" />
<rect x="240" y="80" width="10" height="10" fill="#B5A489" />
<rect x="250" y="80" width="10" height="60" fill="#181425" />
<rect x="310" y="80" width="10" height="10" fill="#181425" />
<rect x="80" y="90" width="10" height="10" fill="#181425" />
<rect x="90" y="90" width="10" height="20" fill="#F77622" />
<rect x="200" y="90" width="10" height="20" fill="#181425" />
<rect x="220" y="90" width="10" height="20" fill="#F77622" />
<rect x="240" y="90" width="10" height="10" fill="#B0815F" />
<rect x="300" y="90" width="10" height="10" fill="#181425" />
<rect x="70" y="100" width="10" height="10" fill="#181425" />
<rect x="80" y="100" width="10" height="10" fill="#F77622" />
<rect x="100" y="100" width="20" height="10" fill="#3F2832" />
<rect x="230" y="100" width="20" height="10" fill="#BF5E22" />
<rect x="50" y="110" width="20" height="10" fill="#181425" />
<rect x="70" y="110" width="10" height="10" fill="#F77622" />
<rect x="80" y="110" width="20" height="10" fill="#3F2832" />
<rect x="100" y="110" width="30" height="10" fill="#33222E" />
<rect x="160" y="110" width="20" height="10" fill="#181425" />
<rect x="210" y="110" width="10" height="20" fill="#181425" />
<rect x="220" y="110" width="20" height="10" fill="#BF5E22" />
<rect x="240" y="110" width="10" height="20" fill="#954B23" />
<rect x="30" y="120" width="20" height="10" fill="#181425" />
<rect x="50" y="120" width="20" height="50" fill="#F77622" />
<rect x="70" y="120" width="10" height="10" fill="#181425" />
<rect x="80" y="120" width="10" height="10" fill="#3F2832" />
<rect x="90" y="120" width="20" height="10" fill="#33222E" />
<rect x="110" y="120" width="10" height="50" fill="#F77622" />
<rect x="120" y="120" width="10" height="10" fill="#181425" />
<rect x="140" y="120" width="20" height="10" fill="#181425" />
<rect x="160" y="120" width="20" height="10" fill="#F77622" />
<rect x="180" y="120" width="30" height="10" fill="#181425" />
<rect x="220" y="120" width="20" height="10" fill="#181425" />
<rect x="30" y="130" width="10" height="10" fill="#181425" />
<rect x="40" y="130" width="10" height="10" fill="#F77622" />
<rect x="70" y="130" width="10" height="40" fill="#F77622" />
<rect x="80" y="130" width="10" height="10" fill="#181425" />
<rect x="90" y="130" width="10" height="10" fill="#2B1E2C" />
<rect x="100" y="130" width="10" height="20" fill="#F77622" />
<rect x="120" y="130" width="10" height="40" fill="#F77622" />
<rect x="130" y="130" width="10" height="10" fill="#181425" />
<rect x="140" y="130" width="20" height="30" fill="#F77622" />
<rect x="160" y="130" width="20" height="10" fill="#B05722" />
<rect x="180" y="130" width="10" height="10" fill="#181425" />
<rect x="190" y="130" width="30" height="50" fill="#F77622" />
<rect x="220" y="130" width="10" height="10" fill="#BF5E22" />
<rect x="230" y="130" width="10" height="10" fill="#954B23" />
<rect x="240" y="130" width="10" height="10" fill="#181425" />
<rect x="20" y="140" width="10" height="10" fill="#181425" />
<rect x="30" y="140" width="10" height="10" fill="#F77622" />
<rect x="40" y="140" width="10" height="10" fill="#181425" />
<rect x="80" y="140" width="20" height="20" fill="#F77622" />
<rect x="130" y="140" width="10" height="30" fill="#F77622" />
<rect x="160" y="140" width="10" height="10" fill="#B05722" />
<rect x="170" y="140" width="10" height="10" fill="#181425" />
<rect x="180" y="140" width="10" height="10" fill="#B25822" />
<rect x="220" y="140" width="10" height="30" fill="#F77622" />
<rect x="230" y="140" width="30" height="10" fill="#BF5E22" />
<rect x="260" y="140" width="10" height="10" fill="#181425" />
<rect x="10" y="150" width="10" height="20" fill="#181425" />
<rect x="20" y="150" width="10" height="10" fill="#3F2832" />
<rect x="30" y="150" width="10" height="10" fill="#181425" />
<rect x="40" y="150" width="10" height="20" fill="#F77622" />
<rect x="100" y="150" width="10" height="10" fill="#181425" />
<rect x="160" y="150" width="10" height="10" fill="#181425" />
<rect x="170" y="150" width="10" height="10" fill="#B25822" />
<rect x="180" y="150" width="10" height="60" fill="#F77622" />
<rect x="230" y="150" width="10" height="30" fill="#F77622" />
<rect x="240" y="150" width="30" height="10" fill="#BF5E22" />
<rect x="270" y="150" width="10" height="10" fill="#181425" />
<rect x="20" y="160" width="10" height="10" fill="#33222E" />
<rect x="30" y="160" width="10" height="10" fill="#3F2832" />
<rect x="80" y="160" width="10" height="20" fill="#F77622" />
<rect x="90" y="160" width="10" height="10" fill="#181425" />
<rect x="100" y="160" width="10" height="20" fill="#F77622" />
<rect x="140" y="160" width="10" height="10" fill="#F77622" />
<rect x="150" y="160" width="10" height="10" fill="#181425" />
<rect x="160" y="160" width="10" height="10" fill="#B25822" />
<rect x="170" y="160" width="10" height="60" fill="#F77622" />
<rect x="240" y="160" width="10" height="90" fill="#F77622" />
<rect x="250" y="160" width="30" height="10" fill="#BF5E22" />
<rect x="280" y="160" width="10" height="10" fill="#181425" />
<rect x="20" y="170" width="10" height="10" fill="#181425" />
<rect x="30" y="170" width="10" height="10" fill="#B05722" />
<rect x="40" y="170" width="10" height="20" fill="#A79780" />
<rect x="50" y="170" width="30" height="20" fill="#EAD4AA" />
<rect x="90" y="170" width="10" height="10" fill="#F77622" />
<rect x="110" y="170" width="30" height="10" fill="#B05722" />
<rect x="140" y="170" width="10" height="10" fill="#181425" />
<rect x="150" y="170" width="10" height="20" fill="#B25822" />
<rect x="160" y="170" width="10" height="80" fill="#F77622" />
<rect x="220" y="170" width="10" height="30" fill="#BF5E22" />
<rect x="250" y="170" width="10" height="80" fill="#F77622" />
<rect x="260" y="170" width="30" height="10" fill="#BF5E22" />
<rect x="290" y="170" width="10" height="10" fill="#181425" />
<rect x="30" y="180" width="10" height="10" fill="#181425" />
<rect x="80" y="180" width="10" height="20" fill="#A79780" />
<rect x="90" y="180" width="30" height="10" fill="#B05722" />
<rect x="120" y="180" width="20" height="10" fill="#181425" />
<rect x="140" y="180" width="10" height="10" fill="#824322" />
<rect x="190" y="180" width="20" height="10" fill="#F77622" />
<rect x="210" y="180" width="10" height="20" fill="#BF5E22" />
<rect x="230" y="180" width="10" height="20" fill="#181425" />
<rect x="260" y="180" width="10" height="90" fill="#F77622" />
<rect x="270" y="180" width="30" height="10" fill="#BF5E22" />
<rect x="300" y="180" width="10" height="50" fill="#181425" />
<rect x="40" y="190" width="10" height="10" fill="#181425" />
<rect x="50" y="190" width="30" height="10" fill="#A79780" />
<rect x="90" y="190" width="30" height="10" fill="#181425" />
<rect x="120" y="190" width="20" height="10" fill="#B25822" />
<rect x="140" y="190" width="20" height="40" fill="#F77622" />
<rect x="190" y="190" width="10" height="10" fill="#F77622" />
<rect x="200" y="190" width="10" height="20" fill="#BF5E22" />
<rect x="270" y="190" width="10" height="60" fill="#F77622" />
<rect x="280" y="190" width="20" height="40" fill="#BF5E22" />
<rect x="50" y="200" width="40" height="10" fill="#181425" />
<rect x="90" y="200" width="10" height="10" fill="#E4A672" />
<rect x="100" y="200" width="40" height="10" fill="#F77622" />
<rect x="190" y="200" width="10" height="20" fill="#BF5E22" />
<rect x="210" y="200" width="10" height="10" fill="#954B23" />
<rect x="220" y="200" width="10" height="20" fill="#181425" />
<rect x="230" y="200" width="10" height="10" fill="#F77622" />
<rect x="60" y="210" width="10" height="10" fill="#181425" />
<rect x="70" y="210" width="10" height="40" fill="#F77622" />
<rect x="80" y="210" width="10" height="10" fill="#181425" />
<rect x="90" y="210" width="10" height="10" fill="#EAD4AA" />
<rect x="100" y="210" width="20" height="10" fill="#E4A672" />
<rect x="120" y="210" width="20" height="10" fill="#F77622" />
<rect x="180" y="210" width="10" height="10" fill="#BF5E22" />
<rect x="200" y="210" width="10" height="10" fill="#70645D" />
<rect x="210" y="210" width="10" height="10" fill="#8D7F70" />
<rect x="230" y="210" width="10" height="40" fill="#181425" />
<rect x="50" y="220" width="10" height="20" fill="#181425" />
<rect x="60" y="220" width="10" height="30" fill="#F77622" />
<rect x="80" y="220" width="10" height="20" fill="#F77622" />
<rect x="90" y="220" width="20" height="10" fill="#181425" />
<rect x="110" y="220" width="20" height="10" fill="#EAD4AA" />
<rect x="130" y="220" width="10" height="10" fill="#E4A672" />
<rect x="170" y="220" width="10" height="40" fill="#BF5E22" />
<rect x="180" y="220" width="10" height="70" fill="#181425" />
<rect x="190" y="220" width="10" height="10" fill="#70645D" />
<rect x="200" y="220" width="10" height="10" fill="#8D7F70" />
<rect x="210" y="220" width="10" height="10" fill="#181425" />
<rect x="90" y="230" width="10" height="10" fill="#181425" />
<rect x="110" y="230" width="30" height="10" fill="#181425" />
<rect x="140" y="230" width="10" height="10" fill="#EAD4AA" />
<rect x="150" y="230" width="10" height="10" fill="#E4A672" />
<rect x="190" y="230" width="10" height="10" fill="#8D7F70" />
<rect x="200" y="230" width="10" height="10" fill="#181425" />
<rect x="280" y="230" width="10" height="20" fill="#BF5E22" />
<rect x="290" y="230" width="10" height="40" fill="#181425" />
<rect x="40" y="240" width="10" height="10" fill="#181425" />
<rect x="50" y="240" width="10" height="10" fill="#F77622" />
<rect x="80" y="240" width="10" height="10" fill="#181425" />
<rect x="140" y="240" width="20" height="10" fill="#181425" />
<rect x="190" y="240" width="10" height="10" fill="#181425" />
<rect x="30" y="250" width="10" height="10" fill="#181425" />
<rect x="40" y="250" width="30" height="10" fill="#743F39" />
<rect x="70" y="250" width="10" height="10" fill="#181425" />
<rect x="150" y="250" width="10" height="20" fill="#181425" />
<rect x="160" y="250" width="10" height="10" fill="#BF5E22" />
<rect x="240" y="250" width="20" height="10" fill="#181425" />
<rect x="270" y="250" width="10" height="10" fill="#BF5E22" />
<rect x="280" y="250" width="10" height="20" fill="#743F39" />
<rect x="20" y="260" width="10" height="10" fill="#181425" />
<rect x="30" y="260" width="20" height="10" fill="#743F39" />
<rect x="50" y="260" width="20" height="10" fill="#181425" />
<rect x="160" y="260" width="10" height="40" fill="#743F39" />
<rect x="170" y="260" width="10" height="10" fill="#181425" />
<rect x="250" y="260" width="10" height="20" fill="#181425" />
<rect x="270" y="260" width="10" height="20" fill="#743F39" />
<rect x="30" y="270" width="20" height="10" fill="#181425" />
<rect x="140" y="270" width="10" height="20" fill="#181425" />
<rect x="150" y="270" width="10" height="20" fill="#743F39" />
<rect x="170" y="270" width="10" height="20" fill="#743F39" />
<rect x="260" y="270" width="10" height="20" fill="#743F39" />
<rect x="280" y="270" width="10" height="10" fill="#181425" />
<rect x="240" y="280" width="10" height="10" fill="#181425" />
<rect x="250" y="280" width="10" height="10" fill="#743F39" />
<rect x="270" y="280" width="10" height="10" fill="#181425" />
<rect x="150" y="290" width="10" height="10" fill="#181425" />
<rect x="170" y="290" width="10" height="10" fill="#181425" />
<rect x="250" y="290" width="20" height="10" fill="#181425" />
<rect x="160" y="300" width="10" height="10" fill="#181425" />
</svg>